<svg width="316" height="53" viewBox="0 0 316 53" fill="none" xmlns="http://www.w3.org/2000/svg">
<path d="M14.0497 0.320878C17.323 -0.31667 20.7885 -0.0117814 23.8625 1.30381C28.3789 3.20431 31.952 7.13026 33.5403 11.7522C34.8771 15.5486 34.7928 19.7686 33.5276 23.5718C32.6942 26.069 31.3249 28.3415 29.8915 30.5332C25.3212 37.4287 20.6864 44.2805 16.1302 51.1847C14.188 51.2349 12.2443 51.1863 10.3021 51.2098C14.2526 45.3083 18.2823 39.4567 22.2041 33.5371C19.6208 35.1054 16.4534 35.3823 13.5251 34.863C10.1152 34.2376 7.03245 32.2939 4.7723 29.6963C1.64096 26.0997 -0.114312 21.2775 0.196653 16.4989C0.471233 12.5014 2.13679 8.62115 4.78857 5.62085C7.1904 2.91156 10.4763 0.971153 14.0497 0.320878ZM15.5803 4.92892C11.7862 5.50225 8.40509 8.02988 6.62297 11.4056C5.34361 13.7736 4.8801 16.5563 5.27174 19.2151C5.76031 22.5763 7.64125 25.6952 10.329 27.7614C12.3446 29.3298 14.8958 30.2514 17.4631 30.1325C20.0337 30.2369 22.6335 29.432 24.6724 27.8582C27.0494 26.062 28.6733 23.3453 29.2575 20.435C29.9473 16.9676 29.225 13.2402 27.2993 10.274C25.8132 7.9651 23.5427 6.1398 20.9106 5.32059C19.1968 4.76751 17.3552 4.68652 15.5803 4.92892V4.92892ZM91.7593 0.107407C97.5689 -0.413854 103.519 1.11348 108.436 4.23758C113.664 7.53929 117.751 12.69 119.541 18.6314C121.569 25.248 120.671 32.6623 117.241 38.661C114.279 43.9033 109.453 48.0407 103.852 50.2324C98.3916 52.3917 92.2151 52.7007 86.5761 51.0516C80.9383 49.4256 75.8489 45.928 72.3545 41.2104C70.1573 38.2639 68.5929 34.8397 67.8576 31.2338C66.4511 24.3785 68.0288 16.9857 72.0815 11.2801C76.5478 4.87918 83.971 0.657017 91.7593 0.107407ZM91.3977 4.95034C84.9661 5.65153 78.962 9.43864 75.5666 14.9469C71.8981 20.7639 71.2547 28.4421 74.2087 34.6906C75.7407 38.0033 78.1573 40.8868 81.0986 43.0391C85.3346 46.1544 90.7167 47.7461 95.9646 47.2233C102.474 46.7203 108.621 43.0194 112.163 37.5437C115.761 32.0837 116.657 24.8959 114.336 18.7643C113.088 15.4392 110.97 12.4476 108.272 10.1375C103.7 6.14849 97.4237 4.18725 91.3977 4.95034V4.95034ZM39.5033 0.834614C48.8648 0.832879 58.2249 0.834616 67.5868 0.834617L67.5868 5.35474C63.7546 5.35647 59.9241 5.353 56.094 5.35647C56.0888 20.638 56.094 35.9211 56.0906 51.2044L51.0729 51.2044C51.0709 35.9211 51.0745 20.638 51.0709 5.35474C47.2155 5.353 43.3585 5.35647 39.5033 5.35473C39.5033 3.84764 39.5013 2.34228 39.5033 0.834614V0.834614ZM134.447 0.838676C142.042 0.831156 149.638 0.836359 157.234 0.834625C157.236 2.34229 157.234 3.84765 157.234 5.35474C150.995 5.35474 144.753 5.35648 138.514 5.35301C137.677 10.0137 136.789 14.6646 136.002 19.332C138.73 17.7814 141.85 16.8257 145.008 16.9588C148.596 17.0126 152.124 18.3762 154.889 20.6506C158.885 23.8952 161.299 28.9669 161.377 34.1032C161.511 39.4011 159.21 44.7458 155.15 48.1788C152.717 50.2702 149.66 51.6121 146.474 51.9895C142.934 52.3936 139.256 51.7255 136.141 49.97C130.918 47.0902 127.548 41.3575 127.191 35.4487L132.147 35.4487C132.379 38.3753 133.525 41.2499 135.518 43.4217C137.317 45.4322 139.817 46.8242 142.495 47.1944C145.508 47.6525 148.693 46.8927 151.16 45.0979C153.673 43.2925 155.427 40.5078 156.079 37.4915C157.142 32.7522 155.463 27.4593 151.674 24.3695C149.11 22.2441 145.597 21.2863 142.317 21.899C138.979 22.4688 136.038 24.4792 133.881 27.0338C132.55 26.5702 131.222 26.0959 129.896 25.6179C131.427 17.3613 132.957 9.1025 134.447 0.838676V0.838676ZM92.1596 9.31251C92.1 8.3261 93.013 7.42127 93.9976 7.47855C94.9696 7.43516 95.8513 8.33536 95.8102 9.30152C95.8142 15.1766 95.805 21.0531 95.8154 26.9278C95.7188 27.7397 94.973 28.3757 94.1822 28.4853C90.1081 28.3953 86.0265 28.4837 81.9478 28.4369C80.7659 28.4564 79.8125 27.0749 80.3025 25.9899C80.5594 25.2353 81.3496 24.7341 82.1382 24.7558C85.4763 24.7558 88.8162 24.7614 92.1538 24.7521C92.1631 19.6068 92.1509 14.4598 92.1596 9.31251V9.31251Z" fill="white"/>
<path d="M169.81 0.881461C172.384 0.87799 174.959 0.884929 177.533 0.877987C183.711 15.1997 189.833 29.5436 196.001 43.8707C197.394 40.8221 198.649 37.7088 199.988 34.6365C204.797 23.383 209.612 12.1294 214.418 0.874516C216.989 0.888979 219.558 0.876258 222.129 0.881466C222.13 17.7026 222.13 34.5233 222.129 51.3445C220.474 51.3463 218.819 51.3479 217.167 51.3445C217.152 36.3794 217.195 21.4124 217.145 6.44699C215.661 9.69895 214.344 13.0296 212.925 16.3102C207.99 27.9894 203.035 39.6598 198.111 51.3445C196.7 51.3499 195.289 51.3411 193.878 51.3499C187.509 36.3809 181.214 21.3819 174.842 6.41459C174.836 21.3925 174.842 36.3687 174.84 51.3463C173.162 51.3463 171.486 51.3463 169.81 51.3463C169.808 34.5233 169.808 17.7026 169.81 0.881461ZM243.824 14.145C248.136 12.8433 252.911 12.8462 257.124 14.5101C260.188 15.7048 262.913 17.9037 264.478 20.8249C264.567 20.9648 264.674 21.0927 264.803 21.2075C264.877 18.8054 264.813 16.3981 264.835 13.9946C266.425 13.9929 268.014 13.9929 269.606 13.9946C269.609 26.4443 269.609 38.8944 269.606 51.3445C268.016 51.3479 266.425 51.3463 264.835 51.3445C264.822 48.973 264.858 46.598 264.815 44.2267C264.328 44.5643 264.134 45.1571 263.805 45.6263C261.84 48.565 258.693 50.5917 255.308 51.5079C248.854 53.335 241.701 51.3318 236.686 47.0005C235.839 46.3539 235.109 45.5794 234.377 44.8143C233.132 43.614 232.375 42.0203 231.736 40.4395C230.462 37.1267 229.909 33.4957 230.381 29.9675C231.332 22.697 236.875 16.3534 243.824 14.145V14.145ZM248.776 18.0652C246.027 18.308 243.352 19.3354 241.149 20.9937C238.475 22.9898 236.486 25.9019 235.668 29.1429C234.786 32.4792 235.147 36.1385 236.746 39.2054C238.274 42.2106 240.889 44.6201 243.951 46.0122C247.351 47.5752 251.359 47.8843 254.901 46.6179C258.351 45.4088 261.298 42.8682 263.054 39.6671C264.515 37.0153 265.131 33.8892 264.686 30.8892C264.264 27.3641 262.548 23.9937 259.883 21.6386C256.908 18.9437 252.755 17.6612 248.776 18.0652V18.0652ZM287.125 15.7713C290.865 13.6996 295.259 12.8555 299.503 13.3513C302.923 13.7516 306.239 15.0256 309.035 17.0377C311.919 19.1001 314.206 21.9925 315.495 25.2999C313.694 25.2945 311.896 25.3054 310.096 25.2963C309.832 25.3557 309.741 25.0574 309.614 24.9049C307.599 21.6802 304.266 19.3464 300.591 18.4285C296.913 17.5175 292.922 18.0906 289.591 19.8707C286.904 21.3047 284.652 23.5682 283.327 26.3187C281.406 30.2459 281.467 35.0266 283.32 38.9681C284.723 41.9864 287.194 44.4906 290.199 45.928C293.835 47.6941 298.154 47.8304 301.977 46.6123C305.255 45.5883 307.9 43.1867 309.884 40.4501C311.727 40.4396 313.572 40.4431 315.418 40.4483C314.121 43.2224 312.273 45.7609 309.907 47.7174C307.197 49.9917 303.842 51.4595 300.35 51.975C296.528 52.514 292.561 52.0306 288.993 50.5576C285.801 49.2299 282.923 47.1011 280.832 44.3399C276.066 38.2442 275.602 29.1664 279.791 22.6486C281.582 19.7668 284.155 17.397 287.125 15.7713" fill="white"/>
</svg>
