<svg width="174" height="53" viewBox="0 0 174 53" fill="none" xmlns="http://www.w3.org/2000/svg">
<path d="M11.9021 16.6287H19.4401V22.6294H12.3981V41.4248H3.96738V22.6294H0V16.6287H3.96738V14.3475C3.96738 11.372 4.8931 9.14031 6.74454 7.65255C8.59598 6.16478 11.0095 5.4209 13.985 5.4209C16.5638 5.4209 18.4648 5.90029 19.6881 6.85907L18.845 12.1158C18.1177 11.5869 17.1754 11.3224 16.0183 11.3224C13.2742 11.3224 11.9021 12.5126 11.9021 14.893V16.6287Z" fill="white"/>
<path d="M36.3959 16.1328C37.52 16.1328 38.4127 16.3147 39.0739 16.6783L38.1813 23.8196C37.8506 23.6212 37.4043 23.4559 36.8423 23.3237C36.2802 23.1584 35.6851 23.0757 35.057 23.0757C33.47 23.0757 32.1475 23.5882 31.0896 24.6131C30.0316 25.6049 29.5026 27.0431 29.5026 28.9276V41.4248H21.0719V16.6287H28.5108L28.8579 21.9847C29.453 20.1002 30.3788 18.662 31.6351 17.6702C32.9245 16.6453 34.5114 16.1328 36.3959 16.1328Z" fill="white"/>
<path d="M49.0198 41.4248H40.5891V16.6287H49.0198V41.4248Z" fill="white"/>
<path d="M76.5013 28.6796C76.5013 29.8037 76.4187 30.7295 76.2534 31.4568H59.3424C59.6069 33.0107 60.1689 34.1513 61.0285 34.8787C61.9212 35.606 63.0949 35.9697 64.5496 35.9697C65.7729 35.9697 66.7647 35.7383 67.5251 35.2754C68.3186 34.8125 68.8476 34.1348 69.1121 33.2421L75.9558 35.4242C75.2615 37.5401 73.906 39.1601 71.8892 40.2842C69.9055 41.3753 67.459 41.9208 64.5496 41.9208C60.2185 41.9208 56.8959 40.7967 54.5816 38.5485C52.3003 36.3003 51.1597 33.1264 51.1597 29.0268C51.1597 24.9272 52.2838 21.7533 54.532 19.5051C56.7801 17.2569 59.9706 16.1328 64.1033 16.1328C68.1037 16.1328 71.1619 17.2404 73.2778 19.4555C75.4268 21.6376 76.5013 24.7123 76.5013 28.6796ZM64.0537 22.0343C61.3757 22.0343 59.7887 23.6543 59.2928 26.8943H68.6161C68.2194 23.6543 66.6986 22.0343 64.0537 22.0343Z" fill="white"/>
<path d="M94.8091 16.1328C97.4209 16.1328 99.5038 16.8932 101.058 18.4141C102.612 19.9349 103.389 22.1004 103.389 24.9106V41.4248H94.9579V27.2415C94.9579 25.5553 94.6438 24.3651 94.0156 23.6708C93.4205 22.9435 92.5609 22.5798 91.4368 22.5798C90.1143 22.5798 89.0398 23.0592 88.2133 24.018C87.3868 24.9437 86.9735 26.3819 86.9735 28.3325V41.4248H78.5428V16.6287H86.0808L86.3288 21.3896C87.1223 19.6373 88.2464 18.3314 89.7011 17.4718C91.1558 16.5791 92.8585 16.1328 94.8091 16.1328Z" fill="white"/>
<path d="M132.207 6.11519V41.4248H124.62L124.322 36.7136C123.595 38.3336 122.52 39.6065 121.099 40.5322C119.71 41.4579 118.09 41.9208 116.239 41.9208C113.032 41.9208 110.519 40.7967 108.701 38.5485C106.915 36.3003 106.023 33.1595 106.023 29.126C106.023 25.0264 106.932 21.8359 108.75 19.5547C110.569 17.2734 113.081 16.1328 116.288 16.1328C118.041 16.1328 119.545 16.5461 120.801 17.3726C122.058 18.1992 123.049 19.3398 123.777 20.7945V6.11519H132.207ZM119.165 35.7217C120.52 35.7217 121.595 35.2423 122.388 34.2836C123.215 33.2917 123.678 31.8701 123.777 30.0186V28.0349C123.678 26.2166 123.215 24.8115 122.388 23.8196C121.595 22.8278 120.52 22.3318 119.165 22.3318C117.677 22.3318 116.52 22.8774 115.693 23.9684C114.9 25.0594 114.503 26.7455 114.503 29.0268C114.503 31.308 114.9 32.9942 115.693 34.0852C116.52 35.1762 117.677 35.7217 119.165 35.7217Z" fill="white"/>
<path d="M142.985 32.8454C142.985 33.9695 143.151 34.763 143.481 35.2258C143.812 35.6887 144.407 35.9201 145.267 35.9201C146.06 35.9201 146.903 35.7713 147.796 35.4738L147.25 40.681C146.655 41.0446 145.878 41.3422 144.92 41.5736C143.961 41.805 143.019 41.9208 142.093 41.9208C139.448 41.9208 137.53 41.3091 136.34 40.0859C135.15 38.8295 134.555 36.8293 134.555 34.0852V6.11519H142.985V32.8454Z" fill="white"/>
<path d="M164.694 41.4248C163.768 44.0698 162.759 46.1692 161.668 47.7231C160.577 49.2769 159.288 50.3845 157.8 51.0457C156.312 51.74 154.511 52.0872 152.395 52.0872C149.584 52.0872 147.336 51.4755 145.65 50.2523L147.435 44.5987C147.964 45.0947 148.543 45.4253 149.171 45.5906C149.832 45.789 150.675 45.8881 151.7 45.8881C152.725 45.8881 153.535 45.7063 154.13 45.3426C154.726 45.012 155.205 44.4004 155.569 43.5077L156.164 41.9704L153.287 35.2258L145.898 16.6287H155.172L158.99 30.7625L160.181 36.0193L161.52 30.5641L165.338 16.6287H173.769L164.694 41.4248Z" fill="white"/>
<path d="M50.2123 5.24487C50.7852 5.4522 50.9188 6.20188 50.4528 6.5943L42.5748 13.2289C42.1089 13.6214 41.3928 13.3622 41.286 12.7625L39.4792 2.62263C39.3723 2.02289 39.9548 1.53235 40.5276 1.73968L50.2123 5.24487Z" fill="white"/>
</svg>
