<svg width="2500" height="761" viewBox="0 0 2500 761" fill="none" xmlns="http://www.w3.org/2000/svg">
<g clip-path="url(#clip0)">
<path d="M777.9 634.3H803.4C812.6 634.3 819.9 636.1 825.1 639.6C830.4 643.2 833 648.4 833 655.4C833 658.6 832.4 661.5 831.2 664.2C830 666.8 828.4 669.2 826.3 671.3C824.3 673.4 822 675 819.4 676.4C816.9 677.8 814.3 678.7 811.7 679.3L811.6 679.9C816.6 681.1 820.7 683.2 824.1 686.4C827.5 689.6 829.2 693.9 829.2 699.3C829.2 704.7 828.2 709.2 826.2 713.1C824.2 716.9 821.4 720.1 817.8 722.6C814.2 725.1 810 726.9 805.1 728.1C800.2 729.3 795 729.9 789.3 729.9H758.7L777.9 634.3ZM788.4 721.1C797.5 721.1 804.8 719.4 810.1 716.1C815.4 712.8 818.1 707.4 818.1 699.9C818.1 695 816.2 691.1 812.5 688.2C808.8 685.2 803.3 683.7 796.2 683.7H779.3L771.7 721.1H788.4ZM794.7 675.4C803.8 675.4 810.6 673.7 815 670.3C819.4 666.9 821.6 662.5 821.6 657C821.6 652.6 819.9 649.2 816.6 646.8C813.3 644.4 808 643.2 800.7 643.2H787.4L781 675.4H794.7ZM836.5 751.4C840.1 751.4 843.5 750 846.6 747C849.8 744.1 852.6 740.2 855 735.2L857.6 730.1L845.5 659.1H856.6L862.1 698.9C862.6 702.1 863 705.6 863.4 709.3C863.8 713 864.1 716.6 864.4 720H865C866.7 716.6 868.4 713.1 870.2 709.4C872 705.7 873.8 702.2 875.5 698.8L895.9 659H907L865.3 735.9C863.5 739.2 861.6 742.5 859.5 745.6C857.6 748.4 855.4 751 852.9 753.3C850.6 755.4 848 757.2 845.1 758.5C842.3 759.8 839.2 760.4 835.8 760.4C834.7 760.4 833.4 760.3 831.9 760C830.4 759.7 828.9 759.2 827.6 758.4L831.2 750.1C833 750.9 834.8 751.4 836.5 751.4V751.4ZM954.2 634.3H1007L1005.1 643.8H963.5L957 677H992.1L990.2 686.6H955.2L946.4 729.9H935L954.2 634.3ZM1002.9 702.1C1002.7 690.2 1007 678.6 1014.9 669.7C1018.5 665.8 1022.5 662.7 1027 660.6C1031.5 658.5 1036.1 657.4 1040.8 657.4C1044.8 657.4 1048.2 658 1050.9 659.4C1053.7 660.7 1055.9 662.5 1057.7 664.8C1059.5 667.1 1060.7 669.8 1061.5 673C1062.3 676.2 1062.7 679.6 1062.7 683.2C1062.7 686 1062.4 688.7 1061.8 691.2C1061.2 693.7 1060.7 695.7 1060.2 697H1014.1C1013.4 701.6 1013.5 705.5 1014.2 708.7C1015 712 1016.3 714.6 1018.1 716.8C1019.9 719 1022.1 720.5 1024.7 721.5C1027.3 722.5 1030.2 723 1033.3 723C1036.1 723 1038.9 722.4 1041.7 721.2C1044.5 720 1047 718.6 1049.2 716.9L1053.6 724.3C1050.5 726.5 1047.1 728.3 1043.5 729.6C1039.4 731.1 1035 731.9 1030.7 731.9C1022.2 731.9 1015.5 729.3 1010.4 724.2C1005.4 718.9 1002.9 711.6 1002.9 702.1V702.1ZM1052.5 689.3C1052.7 688.1 1052.9 687 1053 685.8C1053.1 684.6 1053.2 683.4 1053.2 682C1053.2 680 1053 678 1052.5 676.1C1052 674.2 1051.2 672.5 1050.2 671.1C1049.1 669.6 1047.7 668.5 1046 667.6C1044.3 666.7 1042.1 666.3 1039.6 666.3C1037 666.3 1034.4 666.9 1031.9 667.9C1029.3 669 1027 670.6 1025 672.6C1020.3 677.2 1016.9 683 1015.4 689.4H1052.5V689.3ZM1131.3 653.8L1136.8 626.1H1148L1127 729.9H1117.8L1119 719.4H1118.4C1115.1 723 1111.2 726 1106.9 728.3C1102.9 730.5 1098.4 731.6 1093.8 731.7C1087.6 731.7 1082.6 729.5 1078.9 725.1C1075.2 720.7 1073.4 714.4 1073.4 706C1073.4 699.2 1074.5 692.8 1076.6 686.9C1078.6 681.3 1081.5 676.1 1085.2 671.4C1088.8 667 1092.9 663.6 1097.5 661C1101.9 658.5 1106.8 657.2 1111.8 657.2C1115.6 657.2 1118.9 658.2 1121.7 660C1124.5 661.9 1126.8 664.4 1128.6 667.5H1129L1131.3 653.8ZM1097.9 722.4C1101.6 722.4 1105.3 721.3 1109.1 719.1C1112.9 716.9 1116.6 713.5 1120.2 708.8L1126.6 677.2C1124.6 673.5 1122.3 670.8 1119.9 669.2C1117.6 667.6 1114.9 666.7 1112.2 666.7C1108.7 666.7 1105.3 667.7 1102 669.8C1098.7 671.9 1095.8 674.7 1093.3 678.2C1090.7 681.9 1088.6 685.9 1087.2 690.2C1085.7 694.7 1084.9 699.5 1084.9 704.3C1084.9 710.4 1086.1 715 1088.4 717.9C1090.7 720.9 1093.9 722.4 1097.9 722.4V722.4ZM1151.1 702.1C1150.9 690.2 1155.2 678.6 1163.1 669.7C1166.7 665.8 1170.7 662.7 1175.2 660.6C1179.7 658.5 1184.3 657.4 1189 657.4C1193 657.4 1196.4 658 1199.1 659.4C1201.9 660.7 1204.1 662.5 1205.9 664.8C1207.7 667.1 1208.9 669.8 1209.7 673C1210.5 676.2 1210.9 679.6 1210.9 683.2C1210.9 686 1210.6 688.7 1210 691.2C1209.4 693.7 1208.9 695.7 1208.4 697H1162.3C1161.6 701.6 1161.7 705.5 1162.4 708.7C1163.2 712 1164.5 714.6 1166.3 716.8C1168.1 719 1170.3 720.5 1172.9 721.5C1175.5 722.5 1178.4 723 1181.5 723C1184.3 723 1187.1 722.4 1189.9 721.2C1192.7 720 1195.2 718.6 1197.4 716.9L1201.8 724.3C1198.7 726.5 1195.3 728.3 1191.7 729.6C1187.6 731.1 1183.2 731.9 1178.9 731.9C1170.4 731.9 1163.7 729.3 1158.6 724.2C1153.6 718.9 1151.1 711.6 1151.1 702.1ZM1200.7 689.3C1200.9 688.1 1201.1 687 1201.2 685.8C1201.3 684.6 1201.4 683.4 1201.4 682C1201.4 680 1201.2 678 1200.7 676.1C1200.2 674.2 1199.4 672.5 1198.4 671.1C1197.3 669.6 1195.9 668.5 1194.2 667.6C1192.5 666.7 1190.3 666.3 1187.8 666.3C1185.2 666.3 1182.6 666.9 1180.1 667.9C1177.5 669 1175.2 670.6 1173.2 672.6C1168.5 677.2 1165.1 683 1163.6 689.4H1200.7V689.3ZM1234.3 659.1H1243.5L1241.9 672.7H1242.5C1245.3 668.3 1248.6 664.7 1252.3 661.8C1256.1 658.9 1260.1 657.4 1264.5 657.4C1266.9 657.4 1269.2 657.8 1271.2 658.7L1267.3 668.6C1265.7 667.8 1263.7 667.4 1261.2 667.4C1257.7 667.4 1254.1 668.9 1250.4 671.9C1246.7 674.9 1243.3 679.3 1240.3 685.2L1231.4 730H1220.3L1234.3 659.1ZM1284.4 659.1H1295.6L1281.3 730H1270.2L1284.4 659.1ZM1293.8 644.3C1291.9 644.3 1290.2 643.7 1288.8 642.6C1287.4 641.5 1286.7 639.8 1286.7 637.7C1286.6 635.4 1287.6 633.2 1289.2 631.6C1290.8 630.1 1292.9 629.2 1295.1 629.2C1297 629.2 1298.7 629.8 1300.1 631C1301.5 632.2 1302.2 633.8 1302.2 636C1302.3 638.3 1301.3 640.4 1299.6 642C1298.2 643.5 1296 644.4 1293.8 644.3V644.3ZM1305.7 703.3C1305.7 696.7 1306.8 690.6 1309 685C1311.2 679.4 1314.1 674.6 1317.8 670.5C1321.5 666.4 1325.7 663.2 1330.4 660.9C1335.2 658.6 1340.1 657.4 1345.3 657.4C1349.6 657.4 1353.2 658.2 1356.1 659.9C1359 661.5 1361.5 663.6 1363.7 666L1357.1 673C1355.6 671 1353.7 669.4 1351.6 668.1C1349.7 667.1 1347.4 666.6 1344.6 666.6C1341.1 666.6 1337.7 667.6 1334.4 669.5C1331 671.5 1328 674.2 1325.6 677.3C1323 680.6 1321 684.4 1319.5 688.7C1318 693.1 1317.2 697.7 1317.2 702.6C1317.2 709 1318.6 713.9 1321.3 717.3C1324.1 720.7 1328.3 722.4 1333.9 722.4C1337 722.4 1339.9 721.8 1342.4 720.5C1345 719.2 1347.4 717.8 1349.6 716.1L1354.5 723.4C1351.6 725.6 1348.5 727.5 1345.2 729C1341.5 730.8 1337 731.7 1331.8 731.7C1324 731.7 1317.7 729.2 1312.9 724.3C1308.1 719.4 1305.7 712.4 1305.7 703.3V703.3ZM1392.4 731.7C1384.7 731.7 1378.6 729.2 1374 724.1C1369.4 719.1 1367.1 712.1 1367.1 703.2C1367.1 696.5 1368.2 690.3 1370.3 684.7C1372.3 679.4 1375.2 674.4 1378.9 670.2C1382.3 666.3 1386.5 663.1 1391.2 660.7C1395.8 658.4 1400.5 657.3 1405.3 657.3C1413 657.3 1419.1 659.8 1423.7 664.9C1428.3 669.9 1430.6 676.9 1430.6 685.8C1430.6 692.5 1429.5 698.7 1427.3 704.3C1425.3 709.6 1422.4 714.5 1418.7 718.8C1415.3 722.7 1411.1 726 1406.4 728.3C1402 730.6 1397.3 731.7 1392.4 731.7ZM1404.2 666.5C1401 666.5 1397.8 667.4 1394.7 669.3C1391.6 671.2 1388.8 673.8 1386.4 677C1383.9 680.5 1381.9 684.4 1380.6 688.5C1379.2 692.9 1378.4 697.5 1378.4 702.5C1378.4 708.9 1379.7 713.8 1382.3 717.2C1384.9 720.6 1388.6 722.3 1393.6 722.3C1396.9 722.3 1400.1 721.3 1403.2 719.5C1406.3 717.6 1409 715.1 1411.4 711.9C1413.8 708.7 1415.8 704.9 1417.2 700.5C1418.7 696 1419.4 691.2 1419.4 686.5C1419.4 680.1 1418.1 675.1 1415.5 671.7C1413 668.2 1409.2 666.5 1404.2 666.5V666.5ZM1476.6 634.3H1488.1L1492 687.4C1493 697.9 1493.8 708.4 1494.3 718.9H1494.9C1497.3 713.8 1499.8 708.5 1502.4 703.1C1505 697.7 1507.5 692.5 1510 687.3L1536.4 634.2H1548.7L1498.7 729.9H1485.1L1476.6 634.3ZM1555.6 659.1H1566.8L1552.5 730H1541.4L1555.6 659.1ZM1565.1 644.3C1563.2 644.3 1561.5 643.7 1560.1 642.6C1558.7 641.5 1558 639.9 1558 637.7C1557.9 635.4 1558.9 633.2 1560.5 631.6C1562.1 630.1 1564.2 629.2 1566.4 629.2C1568.3 629.2 1570 629.8 1571.4 631C1572.8 632.2 1573.5 633.8 1573.5 636C1573.6 638.3 1572.6 640.4 1570.9 642C1569.4 643.5 1567.3 644.4 1565.1 644.3V644.3ZM1590.6 668.1H1580.2L1581.8 659.8L1592.9 659.1L1598.2 639.6H1607.7L1603.8 659.1H1621.7L1619.9 668.2H1601.7L1593.4 708.7C1593.1 710.4 1593 712.2 1593 714C1593 716.9 1593.7 719.1 1595 720.6C1596.3 722.1 1598.7 722.8 1602.1 722.8C1603.5 722.8 1604.8 722.6 1606 722.1C1607.3 721.6 1608.4 721.1 1609.5 720.6L1612 728.6C1610.1 729.5 1608.2 730.2 1606.2 730.8C1603.7 731.5 1601.2 731.9 1598.6 731.8C1595.5 731.8 1592.9 731.4 1590.7 730.6C1588.6 729.8 1586.8 728.6 1585.4 727.2C1584 725.8 1583.1 724.1 1582.5 722.2C1581.9 720.2 1581.6 718.1 1581.6 716C1581.6 714.5 1581.7 713.2 1581.8 712C1581.9 710.8 1582.1 709.5 1582.3 708.1L1590.6 668.1ZM1637.6 659.1H1648.8L1634.5 730H1623.4L1637.6 659.1ZM1647.1 644.3C1645.3 644.3 1643.5 643.8 1642.1 642.6C1640.7 641.5 1640 639.8 1640 637.7C1640 635.3 1640.9 633.2 1642.6 631.6C1644.2 630 1646.3 629.2 1648.5 629.2C1650.5 629.2 1652.1 629.8 1653.5 631C1654.9 632.2 1655.6 633.8 1655.6 636C1655.6 638.4 1654.8 640.4 1653.1 642C1651.4 643.5 1649.2 644.4 1647.1 644.3V644.3ZM1658.9 703.3C1658.9 696.7 1660 690.6 1662.2 685C1664.4 679.4 1667.3 674.6 1671 670.5C1674.6 666.4 1678.9 663.2 1683.6 660.9C1688.4 658.6 1693.3 657.4 1698.5 657.4C1702.8 657.4 1706.4 658.2 1709.3 659.9C1712.2 661.5 1714.7 663.6 1716.9 666L1710.3 673C1708.4 670.8 1706.6 669.1 1704.7 668.1C1702.8 667.1 1700.5 666.6 1697.7 666.6C1694.2 666.6 1690.8 667.6 1687.5 669.5C1684.2 671.5 1681.2 674 1678.7 677.3C1676.1 680.5 1674.1 684.4 1672.6 688.7C1671.1 693.1 1670.3 697.7 1670.3 702.6C1670.3 709 1671.7 713.9 1674.4 717.3C1677.2 720.7 1681.4 722.4 1687 722.4C1690.1 722.4 1693 721.8 1695.5 720.5C1698.1 719.2 1700.5 717.8 1702.7 716.1L1707.7 723.4C1704.8 725.6 1701.7 727.5 1698.4 729C1694.7 730.8 1690.2 731.7 1685 731.7C1677.2 731.7 1670.9 729.2 1666.1 724.3C1661.3 719.4 1658.9 712.4 1658.9 703.3V703.3ZM1720.1 703.3C1720.1 696.7 1721.2 690.6 1723.4 685C1725.6 679.4 1728.5 674.6 1732.2 670.5C1735.9 666.4 1740.1 663.2 1744.8 660.9C1749.6 658.6 1754.5 657.4 1759.7 657.4C1764 657.4 1767.6 658.2 1770.5 659.9C1773.4 661.5 1775.9 663.6 1778.1 666L1771.5 673C1770 671 1768.1 669.4 1766 668.1C1764.1 667.1 1761.8 666.6 1759 666.6C1755.5 666.6 1752.1 667.6 1748.8 669.5C1745.4 671.5 1742.4 674.2 1740 677.3C1737.4 680.6 1735.4 684.4 1733.9 688.7C1732.4 693.1 1731.6 697.7 1731.6 702.6C1731.6 709 1733 713.9 1735.7 717.3C1738.5 720.7 1742.7 722.4 1748.3 722.4C1751.4 722.4 1754.3 721.8 1756.8 720.5C1759.4 719.2 1761.8 717.8 1764 716.1L1768.9 723.4C1766 725.6 1762.9 727.5 1759.6 729C1755.9 730.8 1751.4 731.7 1746.2 731.7C1738.4 731.7 1732.1 729.2 1727.3 724.3C1722.5 719.4 1720.1 712.4 1720.1 703.3V703.3ZM1796.8 659.1H1808L1793.7 730H1782.6L1796.8 659.1ZM1806.3 644.3C1804.4 644.3 1802.7 643.7 1801.3 642.6C1799.9 641.5 1799.2 639.8 1799.2 637.7C1799.1 635.4 1800.1 633.2 1801.7 631.6C1803.3 630.1 1805.4 629.2 1807.6 629.2C1809.5 629.2 1811.2 629.8 1812.6 631C1814 632.2 1814.7 633.8 1814.7 636C1814.8 638.3 1813.8 640.4 1812.1 642C1810.6 643.5 1808.5 644.4 1806.3 644.3V644.3ZM1925.3 678.6C1922.3 685 1918.9 691.2 1915.2 697.2C1911.6 703.1 1907.4 708.6 1902.6 713.7C1908 718 1912.9 720.9 1917.5 722.6L1912.8 731.7C1906.9 729.7 1900.9 726.2 1894.9 721.1C1890.9 724.3 1886.5 727 1881.8 728.9C1877.1 730.8 1872 731.8 1866.9 731.7C1859.6 731.7 1853.8 729.7 1849.4 725.6C1845 721.6 1842.8 716.2 1842.8 709.3C1842.8 705.4 1843.5 701.9 1844.9 698.7C1846.2 695.5 1848.1 692.7 1850.3 690C1852.5 687.3 1855.1 685 1858 682.9C1860.9 680.8 1863.9 678.8 1867 676.9C1865.3 671.6 1864.4 666 1864.4 660.4C1864.3 653 1866.9 645.8 1871.9 640.3C1874.2 637.8 1876.8 635.9 1879.9 634.5C1882.9 633.1 1886.1 632.4 1889.5 632.4C1894.8 632.4 1898.7 633.9 1901.3 636.8C1903.9 639.7 1905.2 643.5 1905.2 648C1905.2 651.7 1904.4 655 1902.9 658.1C1901.3 661.2 1899.2 664 1896.8 666.5C1894.2 669.2 1891.3 671.6 1888.2 673.6C1885 675.8 1881.7 677.9 1878.4 679.9C1880.5 685.1 1883 690 1886.1 694.8C1889.2 699.6 1892.6 703.9 1896.3 707.8C1900.3 703.6 1903.8 699.1 1906.7 694.2C1909.7 689.3 1912.4 684.1 1914.9 678.4L1925.3 678.6ZM1854 707.9C1854 712.4 1855.4 716 1858.1 718.7C1860.9 721.4 1864.5 722.8 1869 722.8C1872.4 722.8 1875.8 722.1 1879.2 720.7C1882.5 719.3 1885.8 717.5 1888.9 715C1885.1 710.8 1881.6 706.2 1878.4 701.2C1875.2 696.2 1872.5 691 1870.2 685.5C1865.6 688.6 1861.8 691.9 1858.7 695.4C1855.6 698.9 1854 703.1 1854 707.9V707.9ZM1874.1 659.9C1874.1 663.6 1874.6 667.6 1875.7 671.9C1878.4 670.3 1881 668.6 1883.5 666.9C1885.8 665.4 1888 663.6 1890 661.6C1891.8 659.7 1893.3 657.8 1894.4 655.6C1895.5 653.4 1896.1 651.1 1896.1 648.5C1896.2 646.4 1895.5 644.4 1894.3 642.7C1893.1 641.1 1891.3 640.3 1888.7 640.3C1886.7 640.3 1884.7 640.8 1882.9 641.7C1881.1 642.7 1879.5 644.1 1878.2 645.8C1876.8 647.7 1875.8 649.8 1875.1 652C1874.5 654.7 1874.1 657.3 1874.1 659.9V659.9ZM1977.8 634.3H2030.6L2028.7 643.8H1987.1L1980.5 677.1H2015.7L2013.8 686.7H1978.8L1970 730H1958.6L1977.8 634.3ZM2038.2 659.1H2047.4L2045.8 672.7H2046.4C2049.2 668.3 2052.5 664.7 2056.2 661.8C2059.9 658.9 2064 657.4 2068.4 657.4C2070.8 657.4 2073.1 657.8 2075.1 658.7L2071.2 668.6C2069.7 667.8 2067.6 667.4 2065.1 667.4C2061.6 667.4 2058 668.9 2054.3 671.9C2050.6 674.9 2047.2 679.3 2044.2 685.2L2035.3 730H2024.2L2038.2 659.1ZM2088.2 659.1H2099.4L2085.1 730H2074L2088.2 659.1ZM2097.7 644.3C2095.8 644.3 2094.1 643.7 2092.7 642.6C2091.3 641.5 2090.6 639.8 2090.6 637.7C2090.5 635.4 2091.5 633.2 2093.1 631.6C2094.7 630.1 2096.8 629.2 2099 629.2C2100.9 629.2 2102.6 629.8 2104 631C2105.4 632.2 2106.1 633.8 2106.1 636C2106.2 638.3 2105.2 640.4 2103.5 642C2102 643.5 2099.9 644.4 2097.7 644.3V644.3ZM2109.5 702.1C2109.3 690.2 2113.6 678.6 2121.5 669.7C2125.1 665.8 2129.1 662.7 2133.6 660.6C2138.1 658.5 2142.7 657.4 2147.4 657.4C2151.4 657.4 2154.8 658 2157.5 659.4C2160.3 660.7 2162.5 662.5 2164.3 664.8C2166.1 667.1 2167.3 669.8 2168.1 673C2168.9 676.2 2169.3 679.6 2169.3 683.2C2169.3 686 2169 688.7 2168.4 691.2C2167.8 693.7 2167.3 695.7 2166.8 697H2120.7C2120 701.6 2120.1 705.5 2120.8 708.7C2121.6 712 2122.9 714.6 2124.7 716.8C2126.5 719 2128.7 720.5 2131.3 721.5C2133.9 722.5 2136.8 723 2139.9 723C2142.7 723 2145.5 722.4 2148.3 721.2C2151.1 720 2153.6 718.6 2155.8 716.9L2160.2 724.3C2157.4 726.3 2154 728.1 2150.1 729.6C2146.2 731.1 2141.9 731.9 2137.3 731.9C2128.8 731.9 2122.1 729.3 2117 724.2C2112 718.9 2109.5 711.6 2109.5 702.1ZM2159.1 689.2C2159.3 688 2159.5 686.9 2159.6 685.7C2159.7 684.5 2159.8 683.3 2159.8 681.9C2159.8 679.9 2159.6 677.9 2159.1 676C2158.6 674.1 2157.8 672.4 2156.8 671C2155.7 669.5 2154.3 668.4 2152.6 667.5C2150.8 666.6 2148.7 666.2 2146.2 666.2C2143.6 666.2 2141 666.8 2138.6 667.8C2136 668.9 2133.7 670.5 2131.7 672.5C2127 677.1 2123.6 682.9 2122.1 689.3H2159.1V689.2ZM2192.8 659.1H2202L2201 669.7H2201.6C2205.7 666.2 2209.7 663.3 2213.7 660.9C2217.7 658.5 2221.9 657.3 2226.4 657.3C2232.4 657.3 2236.7 658.9 2239.3 662C2241.9 665.1 2243.2 669.4 2243.2 675C2243.3 678.3 2242.9 681.6 2242 684.8L2232.9 730H2221.8L2230.6 686.2C2231 684.3 2231.3 682.7 2231.5 681.5C2231.7 680.3 2231.8 679.1 2231.8 677.9C2231.8 674.3 2231 671.6 2229.3 669.7C2227.7 667.9 2225 666.9 2221.3 666.9C2218.5 666.9 2215.3 667.9 2211.9 670C2208.4 672 2204.5 675.3 2200 679.8L2189.9 730H2178.8L2192.8 659.1ZM2314.4 653.8L2319.9 626.1H2331.1L2310.1 729.9H2300.9L2302.1 719.4H2301.5C2298.1 723.1 2294.3 726.1 2290 728.3C2285.7 730.5 2281.4 731.7 2276.9 731.7C2270.7 731.7 2265.7 729.5 2262 725.1C2258.3 720.7 2256.4 714.4 2256.4 706C2256.4 699.2 2257.5 692.8 2259.6 686.9C2261.7 681 2264.6 675.8 2268.2 671.4C2271.8 667 2275.9 663.6 2280.5 661C2284.9 658.5 2289.8 657.2 2294.8 657.2C2298.6 657.2 2301.9 658.2 2304.7 660C2307.5 661.9 2309.8 664.4 2311.6 667.5H2312L2314.4 653.8ZM2281 722.4C2284.7 722.4 2288.4 721.3 2292.2 719.1C2296 716.9 2299.7 713.5 2303.3 708.8L2309.7 677.2C2307.6 673.5 2305.4 670.8 2303 669.2C2300.7 667.6 2298 666.7 2295.3 666.7C2291.8 666.7 2288.4 667.7 2285.1 669.8C2281.8 671.9 2278.9 674.7 2276.3 678.2C2273.7 681.7 2271.8 685.7 2270.3 690.2C2268.8 694.7 2268 699.5 2268 704.3C2268 710.4 2269.2 715 2271.5 717.9C2273.8 720.9 2277 722.4 2281 722.4V722.4ZM2335.2 712.7C2337.4 715.8 2340.1 718.3 2343.2 720.2C2346.3 722.1 2349.7 723 2353.4 723C2355.4 723 2357.4 722.7 2359.2 722C2361 721.4 2362.6 720.5 2364 719.5C2365.4 718.4 2366.5 717.2 2367.3 715.8C2368.1 714.4 2368.5 712.9 2368.5 711.2C2368.5 710 2368.3 708.8 2367.9 707.7C2367.5 706.6 2366.8 705.6 2365.8 704.6C2364.8 703.6 2363.5 702.5 2361.8 701.5C2360.1 700.4 2358 699.2 2355.6 697.9C2350.1 694.9 2346 691.9 2343.3 689C2340.7 686.1 2339.3 682.4 2339.4 678.5C2339.4 675.4 2340 672.5 2341.4 669.9C2342.7 667.3 2344.5 665 2346.7 663.2C2348.9 661.3 2351.5 659.9 2354.4 658.9C2357.3 657.9 2360.5 657.4 2363.8 657.4C2368.2 657.4 2372.1 658.3 2375.5 660C2378.9 661.7 2382 664 2384.6 666.9L2378.2 673.2C2376.3 671.3 2374.1 669.6 2371.8 668.3C2369.3 666.9 2366.4 666.2 2363.5 666.2C2359.7 666.2 2356.5 667.3 2353.9 669.5C2351.3 671.7 2350 674.3 2350 677.3C2350 678.7 2350.3 680 2351 681.2C2351.7 682.4 2352.6 683.4 2353.8 684.4C2355 685.4 2356.3 686.3 2357.8 687.2C2359.3 688.1 2360.9 689 2362.5 689.8C2365.7 691.6 2368.3 693.2 2370.4 694.8C2372.5 696.4 2374.2 698 2375.5 699.6C2376.8 701.2 2377.7 702.8 2378.3 704.5C2378.8 706.2 2379.1 708 2379.1 709.9C2379.2 716.1 2376.5 722 2371.6 725.8C2369.2 727.7 2366.4 729.2 2363.1 730.2C2359.8 731.2 2356.3 731.7 2352.5 731.7C2350.1 731.7 2347.7 731.3 2345.4 730.7C2340.6 729.3 2336.2 726.9 2332.6 723.5C2330.9 722 2329.4 720.2 2328.1 718.3L2335.2 712.7Z" fill="#D7DAE4"/>
<path d="M927.4 450V303.6L881.1 450H847.8L802.3 304V450H758.8V173H802.3L864.4 356.2L927.4 173H970.9V450H927.4ZM1176.8 450C1113.9 455.9 1024.4 467.8 1024.4 383.1V350.3C1024.4 321.8 1035.5 305.6 1051.7 297.7C1079.8 283.8 1119.4 296.5 1133.2 304C1133.2 282.2 1110.6 278.7 1090.9 278.7L1094.5 248.6C1176.8 248.6 1176.8 294.1 1176.8 332.1V450ZM1133.2 350.3C1118.6 340 1068.3 321.8 1068.3 355.8V377.6C1068.3 403.3 1085.3 419.9 1133.2 411.6V350.3ZM1351.7 447.6C1323.6 455.1 1292.7 456.7 1268.6 449.2C1237.3 438.9 1224.3 418.7 1224.3 378.7V328C1224.3 250.8 1289.6 232.2 1350.9 260.7L1339 298.3C1291.9 279.7 1267.7 298.7 1267.7 325.6V383C1267.7 421 1325.9 410.7 1339.7 404.8L1351.7 447.6ZM1434.9 372.8C1437.3 395.7 1454.3 411.6 1481.2 411.6C1516.8 411.6 1528.3 390.6 1528.3 377.2C1528.3 299.6 1394.9 326.9 1394.9 237.5C1394.9 204.2 1423 169 1484.3 169C1511.6 169 1526.2 173.4 1542.1 180.9C1542.1 181.3 1533 207.8 1528.2 222.1C1513.6 217.3 1501.7 213.4 1484.7 213.4C1452.6 213.4 1440.4 226.5 1441.9 241.5C1446.3 279.9 1576.1 278.7 1576.1 373.3C1576.1 416.4 1549.2 454.4 1481.5 454.4C1420.2 454.4 1389.3 414.8 1388.1 379.6L1434.9 372.8ZM1679.5 455.2C1632.4 454.4 1619.3 428.7 1619.3 397.8V173H1663.6V251.8H1701.2L1691.7 292.6H1663.6V397.9C1663.6 417.3 1676.7 420.5 1692.5 420.5L1679.5 455.2ZM1882.1 377.2C1882.1 417.6 1861.1 454 1808.9 454C1757 454 1734.5 417.6 1734.5 377.2V325C1734.5 275.1 1761 247.4 1808.9 247.4C1854.8 247.4 1882.1 277.1 1882.1 325V377.2ZM1839 325C1839 292.9 1820.4 291.4 1808.9 291.4C1795.4 291.4 1778 296.2 1778 325V381.2C1778 404.1 1792.6 411.3 1808.9 411.3C1825.1 411.3 1839 402.6 1839 381.2V325ZM1932.4 450V251.7H1972.8L1976 253.3C2003.7 243.8 2022.3 248.9 2043.3 253.3L2033 295.6C2006.5 282.1 1976 294.8 1976 322.5V450H1932.4ZM2077.3 192C2077.3 179.7 2088.4 169 2101 169C2113.3 169 2124 179.7 2124 192C2124 204.7 2113.3 215.8 2101 215.8C2088.4 215.7 2077.3 204.6 2077.3 192ZM2078.1 450V251.7H2121.6V450H2078.1ZM2217.4 380V391C2217.4 416.7 2242.3 423.9 2290.2 398.5L2306 436.1C2287.4 447.6 2263.2 454.3 2240.7 454.7C2201.5 455.9 2173.4 438.1 2173.4 396.9V315.8C2173.4 272.3 2203.1 248.1 2246.2 248.1C2290.1 248.1 2315.9 273 2315.9 314.6V374.8L2217.4 380ZM2272 315.5C2272 298.9 2259.7 291 2245.9 291C2223.7 291 2217.4 306.4 2217.4 316.3V340L2272 336.4V315.5ZM2397.1 395.4C2397.1 402.5 2404.2 415.2 2426.8 415.2C2445.8 415.2 2454.1 403.7 2454.1 393.4C2454.1 351.9 2365 374 2358.3 305.5C2355.9 280.6 2373.7 246.9 2426 246.9C2454.1 246.9 2470.3 258.4 2470.3 258.4L2457.6 298.8C2457.6 298.8 2448.5 289.7 2425.9 289.7C2401.4 289.7 2404.1 301.6 2405.3 306.3C2410.4 329.3 2499.9 322.9 2499.9 394.2C2499.9 425.1 2478.1 456 2426.7 456C2379.6 456 2354.7 429.5 2353.5 399.8L2397.1 395.4ZM312.5 0C139.9 0 0 139.9 0 312.5C0 485.1 139.9 625 312.5 625C485.1 625 625 485.1 625 312.5C625 139.9 485.1 0 312.5 0ZM458.3 505.2C458.3 508.1 455.9 510.4 453.1 510.4C450.2 510.4 328.1 427.1 312.5 427.1C296.9 427.1 171.9 510.4 171.9 510.4C169 510.4 166.7 508.1 166.7 505.2V119.8C166.7 116.9 169.1 114.6 171.9 114.6H453.2C456.1 114.6 458.4 117 458.4 119.8V505.2H458.3Z" fill="white"/>
</g>
<defs>
<clipPath id="clip0">
<rect width="2500" height="760.4" fill="white"/>
</clipPath>
</defs>
</svg>
